<?xml version="1.0" encoding="utf-8"?>
<!-- Generator: Adobe Illustrator 21.0.0, SVG Export Plug-In . SVG Version: 6.00 Build 0)  -->
<svg version="1.1" id="Layer_1" xmlns="http://www.w3.org/2000/svg" xmlns:xlink="http://www.w3.org/1999/xlink" x="0px" y="0px"
	 viewBox="0 0 60 60" style="enable-background:new 0 0 60 60;" xml:space="preserve">
<style type="text/css">
	.st0{fill:#FFFFFF;}
</style>
<g>
	<path class="st0" d="M58.7,31.1c0.6-0.6,0.6-1.6,0-2.2l-0.9-0.8c-0.6-0.5-0.6-1.3-0.2-1.9l0.7-1c0.5-0.7,0.3-1.7-0.5-2.1l-1.1-0.6
		c-0.6-0.4-0.9-1.2-0.6-1.9l0.5-1.1c0.4-0.8-0.1-1.7-0.9-2L54.6,17c-0.7-0.2-1.1-1-1-1.7l0.3-1.2c0.2-0.9-0.4-1.7-1.3-1.8l-1.2-0.1
		c-0.7-0.1-1.3-0.7-1.3-1.5l0-1.3c0-0.9-0.8-1.5-1.6-1.5l-1.2,0.1c-0.7,0.1-1.4-0.4-1.6-1.2l-0.3-1.2c-0.2-0.8-1.1-1.4-1.9-1.1
		L42.2,5c-0.7,0.2-1.5-0.1-1.8-0.8l-0.5-1.1c-0.4-0.8-1.3-1.1-2.1-0.7L36.7,3c-0.6,0.4-1.5,0.2-1.9-0.4l-0.7-1
		c-0.5-0.7-1.5-0.8-2.2-0.2L31,2.2c-0.6,0.5-1.4,0.5-2,0l-0.9-0.8c-0.6-0.6-1.7-0.5-2.2,0.2l-0.7,1c-0.4,0.6-1.3,0.8-1.9,0.4
		l-1.1-0.6c-0.8-0.4-1.7-0.1-2.1,0.7l-0.5,1.1c-0.3,0.7-1.1,1-1.8,0.8l-1.2-0.4c-0.8-0.3-1.7,0.2-1.9,1.1l-0.3,1.2
		c-0.2,0.7-0.8,1.2-1.6,1.2L11.6,8C10.8,7.9,10,8.6,10,9.4l0,1.3c0,0.7-0.6,1.4-1.3,1.5l-1.2,0.1C6.6,12.4,6,13.2,6.2,14l0.3,1.2
		c0.2,0.7-0.3,1.5-1,1.7l-1.2,0.4c-0.8,0.3-1.2,1.2-0.9,2l0.5,1.1c0.3,0.7,0,1.5-0.6,1.9L2.2,23c-0.8,0.4-1,1.4-0.5,2.1l0.7,1
		c0.4,0.6,0.4,1.4-0.2,1.9l-0.9,0.8c-0.6,0.6-0.6,1.6,0,2.2l0.9,0.8c0.6,0.5,0.6,1.3,0.2,1.9l-0.7,1c-0.5,0.7-0.3,1.7,0.5,2.1
		l1.1,0.6c0.6,0.4,0.9,1.2,0.6,1.9l-0.5,1.1c-0.4,0.8,0.1,1.7,0.9,2L5.4,43c0.7,0.2,1.1,1,1,1.7L6.2,46c-0.2,0.9,0.4,1.7,1.3,1.8
		l1.2,0.1c0.7,0.1,1.3,0.7,1.3,1.5l0,1.3c0,0.9,0.8,1.5,1.6,1.5l1.2-0.1c0.7-0.1,1.4,0.4,1.6,1.2l0.3,1.2c0.2,0.8,1.1,1.4,1.9,1.1
		l1.2-0.4c0.7-0.2,1.5,0.1,1.8,0.8l0.5,1.1c0.4,0.8,1.3,1.1,2.1,0.7l1.1-0.6c0.6-0.4,1.5-0.2,1.9,0.4l0.7,1c0.5,0.7,1.5,0.8,2.2,0.2
		l0.9-0.8c0.6-0.5,1.4-0.5,2,0l0.9,0.8c0.6,0.6,1.7,0.5,2.2-0.2l0.7-1c0.4-0.6,1.3-0.8,1.9-0.4l1.1,0.6c0.8,0.4,1.7,0.1,2.1-0.7
		l0.5-1.1c0.3-0.7,1.1-1,1.8-0.8l1.2,0.4c0.8,0.3,1.7-0.2,1.9-1.1l0.3-1.2c0.2-0.7,0.8-1.2,1.6-1.2l1.2,0.1c0.9,0.1,1.6-0.6,1.6-1.5
		l0-1.3c0-0.7,0.6-1.4,1.3-1.5l1.2-0.1c0.9-0.1,1.5-0.9,1.3-1.8l-0.3-1.2c-0.2-0.7,0.3-1.5,1-1.7l1.2-0.4c0.8-0.3,1.2-1.2,0.9-2
		l-0.5-1.1c-0.3-0.7,0-1.5,0.6-1.9l1.1-0.6c0.8-0.4,1-1.4,0.5-2.1l-0.7-1c-0.4-0.6-0.4-1.4,0.2-1.9L58.7,31.1z M30,55.1
		C16.2,55.1,4.9,43.8,4.9,30C4.9,16.2,16.2,4.9,30,4.9c13.8,0,25.1,11.2,25.1,25.1C55.1,43.8,43.8,55.1,30,55.1z"/>
	<g>
		<path class="st0" d="M33.5,24.3c0.1-0.2,0.1-0.4,0.1-0.8v-1.3c0-0.4,0-0.7-0.1-0.8c-0.1-0.2-0.2-0.2-0.5-0.2
			c-0.2,0-0.4,0.1-0.5,0.2c-0.1,0.2-0.1,0.4-0.1,0.8v1.3c0,0.4,0,0.7,0.1,0.8c0.1,0.2,0.2,0.2,0.5,0.2
			C33.3,24.5,33.4,24.4,33.5,24.3z"/>
		<path class="st0" d="M27,18.5c0.2,0,0.4-0.1,0.5-0.2c0.1-0.2,0.1-0.4,0.1-0.8v-1.3c0-0.4,0-0.7-0.1-0.8c-0.1-0.2-0.2-0.2-0.5-0.2
			c-0.2,0-0.4,0.1-0.5,0.2c-0.1,0.2-0.1,0.4-0.1,0.8v1.3c0,0.4,0,0.7,0.1,0.8C26.6,18.4,26.7,18.5,27,18.5z"/>
		<polygon class="st0" points="25,38.6 27,38.6 26,32.7 		"/>
		<path class="st0" d="M30,5.8C16.7,5.8,5.8,16.7,5.8,30c0,13.3,10.8,24.2,24.2,24.2c13.3,0,24.2-10.8,24.2-24.2
			C54.2,16.7,43.3,5.8,30,5.8z M32.8,13.8h1.7l-7.2,12h-1.7L32.8,13.8z M24.9,15.8c0-0.6,0.2-1.1,0.5-1.5c0.4-0.4,0.9-0.6,1.5-0.6
			c0.7,0,1.2,0.2,1.6,0.6c0.4,0.4,0.5,0.9,0.5,1.5v2c0,0.6-0.2,1.1-0.5,1.4c-0.4,0.4-0.9,0.6-1.6,0.6c-0.7,0-1.2-0.2-1.5-0.6
			c-0.4-0.4-0.5-0.9-0.5-1.4V15.8z M19.8,43.2c-0.7,0.7-1.7,1-2.8,1c-1.3,0-2.3-0.3-2.9-1c-0.6-0.7-1-1.6-1-2.8v-1h2.6v0.9
			c0,0.6,0.1,1,0.3,1.2c0.2,0.2,0.5,0.4,1,0.4c0.9,0,1.3-0.5,1.3-1.6c0-0.5-0.1-0.9-0.3-1.2c-0.2-0.3-0.4-0.6-0.6-0.8
			c-0.2-0.2-0.7-0.5-1.2-1c-0.1-0.1-0.4-0.3-1-0.8c-0.6-0.5-1.1-1-1.4-1.7c-0.3-0.7-0.5-1.5-0.5-2.3c0-1.1,0.3-2,1-2.7
			c0.7-0.7,1.6-1,2.7-1c1.3,0,2.2,0.3,2.8,1c0.6,0.7,0.9,1.6,0.9,2.8v0.7H18v-0.6c0-0.6-0.1-1-0.3-1.2c-0.2-0.2-0.5-0.4-0.8-0.4
			c-0.4,0-0.7,0.1-0.8,0.3c-0.2,0.2-0.3,0.6-0.3,1c0,0.4,0.1,0.8,0.2,1.1c0.2,0.3,0.3,0.6,0.6,0.8c0.2,0.2,0.5,0.5,1,0.8
			c0.2,0.1,0.3,0.2,0.4,0.3c0.7,0.5,1.2,1,1.6,1.3c0.4,0.3,0.7,0.8,0.9,1.4c0.3,0.6,0.4,1.4,0.4,2.3C20.8,41.6,20.5,42.5,19.8,43.2z
			 M27.9,44.1l-0.5-3.1h-2.8l-0.5,3.1h-2.5l2.9-15h3.2l2.9,15H27.9z M30.9,23.8v-2c0-0.6,0.2-1.1,0.5-1.5c0.4-0.4,0.9-0.6,1.5-0.6
			c0.7,0,1.2,0.2,1.6,0.6c0.4,0.4,0.5,0.9,0.5,1.5v2c0,0.6-0.2,1.1-0.5,1.4c-0.4,0.4-0.9,0.6-1.6,0.6c-0.7,0-1.2-0.2-1.5-0.6
			C31.1,24.9,30.9,24.4,30.9,23.8z M38.8,44.1H32V29h2.6v12.7h4.1V44.1z M47,44.1h-6.8V29h6.6v2.3h-3.9V35h3.3v2.3h-3.3v4.4H47V44.1
			z"/>
	</g>
</g>
</svg>
