<svg width="24" height="24" viewBox="0 0 24 24" fill="none" xmlns="http://www.w3.org/2000/svg">
<path fill-rule="evenodd" clip-rule="evenodd" d="M3 0C1.34315 0 0 1.34315 0 3V21C0 22.6569 1.34315 24 3 24H21C22.6569 24 24 22.6569 24 21V3C24 1.34315 22.6569 0 21 0H3ZM4 7.96825V4.00006H4.94927L5.92209 5.89215L6.29861 5.17005L6.89676 4.00006H7.84623V7.96825H6.84499V6.12655L6.56953 6.62032L6.25789 7.20228H5.59404L5.01092 6.12171L5.00152 6.97672V7.96825H4ZM8.81878 7.96825H11.6755V7.10679H9.8203V6.39901H11.4001V5.53749H9.8203V4.86178H11.6755V4.00006H8.81878V7.96825ZM12.6102 7.96825V4.00006H13.4772L14.8839 6.04384L14.893 5.11682V4.00006H15.8943V7.96825H15.0274L13.6203 5.91964L13.6115 6.84207V7.96825H12.6102ZM17.2997 7.61082C17.4424 7.73354 17.6114 7.83031 17.8019 7.89819C17.9915 7.96574 18.1983 8 18.4169 8C18.6355 8 18.8423 7.96574 19.032 7.89819C19.2224 7.83038 19.3913 7.7336 19.5338 7.61108C19.6776 7.48785 19.7924 7.33687 19.875 7.16215C19.9578 6.98776 20 6.79039 20 6.57593V4H19.0044V6.54941C19.0044 6.74149 18.9532 6.88491 18.8472 6.98724C18.742 7.08905 18.6012 7.13847 18.4169 7.13847C18.2329 7.13847 18.0935 7.08905 17.9904 6.98776C17.8861 6.88569 17.8354 6.74226 17.8354 6.54941V4H16.8339V6.57593C16.8339 6.79039 16.876 6.98776 16.9589 7.16215C17.0414 7.33636 17.156 7.48733 17.2997 7.61082ZM20 11H4V12H20V11ZM4 15H20V16H4V15ZM20 19H4V20H20V19Z" fill="white"/>
</svg>
